<svg width="24" height="24" viewBox="0 0 24 24" fill="currentColor" xmlns="http://www.w3.org/2000/svg">
<path fill-rule="evenodd" clip-rule="evenodd" d="M11.5017 1.43944C11.7859 1.18685 12.2141 1.18685 12.4983 1.43944L21.4983 9.43944C21.6584 9.58177 21.75 9.78577 21.75 10V22C21.75 22.4142 21.4142 22.75 21 22.75H3C2.58579 22.75 2.25 22.4142 2.25 22V10C2.25 9.78577 2.34161 9.58177 2.50173 9.43944L11.5017 1.43944ZM3.75 10.3368V21.25H20.25V10.3368L12 3.00347L3.75 10.3368Z"  />
<path fill-rule="evenodd" clip-rule="evenodd" d="M9.25 16C9.25 15.5858 9.58579 15.25 10 15.25H14C14.4142 15.25 14.75 15.5858 14.75 16V22C14.75 22.4142 14.4142 22.75 14 22.75H10C9.58579 22.75 9.25 22.4142 9.25 22V16ZM10.75 16.75V21.25H13.25V16.75H10.75Z"  />
</svg>
